<svg width="320" height="341" viewBox="0 0 320 341" fill="none" xmlns="http://www.w3.org/2000/svg">
<g filter="url(#filter0_i_2_57)">
<path d="M311 0H9C4.02944 0 0 4.02944 0 9V331C0 335.971 4.02944 340 9 340H311C315.971 340 320 335.971 320 331V9C320 4.02944 315.971 0 311 0Z" fill="white"/>
<path d="M311 0.5H9C4.30558 0.5 0.5 4.30558 0.5 9V331C0.5 335.694 4.30558 339.5 9 339.5H311C315.694 339.5 319.5 335.694 319.5 331V9C319.5 4.30558 315.694 0.5 311 0.5Z" stroke="#E4E4E4"/>
</g>
<path d="M0 282C0 265.431 13.431 252 30 252H290C306.57 252 320 265.431 320 282V341H0V282Z" fill="#1AB26B"/>
<path d="M75.556 310V288.182H89.747V291.495H79.509V297.418H89.012V300.732H79.509V306.687H89.832V310H75.556ZM96.354 293.636L99.656 299.677L103.012 293.636H107.092L102.16 301.818L107.178 310H103.119L99.656 304.109L96.226 310H92.135L97.121 301.818L92.263 293.636H96.354ZM114.318 310.33C113.281 310.33 112.347 310.146 111.516 309.776C110.692 309.4 110.039 308.846 109.556 308.114C109.08 307.383 108.842 306.481 108.842 305.408C108.842 304.485 109.012 303.722 109.353 303.118C109.694 302.514 110.159 302.031 110.749 301.669C111.338 301.307 112.002 301.033 112.741 300.849C113.487 300.657 114.257 300.518 115.053 300.433C116.012 300.334 116.789 300.245 117.386 300.167C117.982 300.082 118.416 299.954 118.686 299.783C118.963 299.606 119.101 299.332 119.101 298.963V298.899C119.101 298.097 118.863 297.475 118.387 297.035C117.911 296.594 117.226 296.374 116.331 296.374C115.387 296.374 114.637 296.58 114.083 296.992C113.536 297.404 113.167 297.891 112.975 298.452L109.374 297.94C109.659 296.946 110.127 296.115 110.781 295.447C111.434 294.773 112.233 294.268 113.178 293.935C114.122 293.594 115.166 293.423 116.31 293.423C117.098 293.423 117.883 293.516 118.664 293.7C119.446 293.885 120.159 294.19 120.806 294.616C121.452 295.036 121.97 295.607 122.361 296.332C122.759 297.056 122.958 297.962 122.958 299.048V310H119.25V307.752H119.122C118.888 308.207 118.558 308.633 118.132 309.031C117.713 309.421 117.183 309.737 116.544 309.979C115.912 310.213 115.17 310.33 114.318 310.33ZM115.319 307.496C116.093 307.496 116.764 307.344 117.333 307.038C117.901 306.726 118.338 306.314 118.643 305.803C118.955 305.291 119.112 304.734 119.112 304.13V302.202C118.991 302.301 118.785 302.393 118.494 302.479C118.21 302.564 117.89 302.638 117.535 302.702C117.18 302.766 116.828 302.823 116.48 302.873C116.132 302.923 115.83 302.965 115.575 303.001C114.999 303.079 114.485 303.207 114.03 303.384C113.575 303.562 113.217 303.81 112.954 304.13C112.691 304.442 112.56 304.847 112.56 305.344C112.56 306.055 112.819 306.591 113.338 306.953C113.856 307.315 114.517 307.496 115.319 307.496ZM126.427 310V293.636H130.113V296.417H130.305C130.646 295.479 131.211 294.748 131.999 294.222C132.788 293.69 133.729 293.423 134.822 293.423C135.93 293.423 136.864 293.693 137.624 294.233C138.391 294.766 138.931 295.494 139.243 296.417H139.414C139.776 295.508 140.387 294.783 141.246 294.244C142.113 293.697 143.139 293.423 144.325 293.423C145.831 293.423 147.06 293.899 148.011 294.851C148.963 295.803 149.439 297.191 149.439 299.016V310H145.572V299.613C145.572 298.597 145.302 297.855 144.762 297.386C144.222 296.911 143.562 296.673 142.78 296.673C141.85 296.673 141.122 296.964 140.596 297.546C140.078 298.121 139.819 298.871 139.819 299.794V310H136.037V299.453C136.037 298.608 135.781 297.933 135.27 297.429C134.765 296.925 134.105 296.673 133.288 296.673C132.734 296.673 132.23 296.815 131.775 297.099C131.321 297.376 130.959 297.77 130.689 298.281C130.419 298.786 130.284 299.375 130.284 300.05V310H126.427ZM152.943 310V293.636H156.8V310H152.943ZM154.882 291.314C154.271 291.314 153.746 291.112 153.305 290.707C152.865 290.295 152.645 289.801 152.645 289.226C152.645 288.643 152.865 288.15 153.305 287.745C153.746 287.333 154.271 287.127 154.882 287.127C155.5 287.127 156.026 287.333 156.459 287.745C156.899 288.15 157.119 288.643 157.119 289.226C157.119 289.801 156.899 290.295 156.459 290.707C156.026 291.112 155.5 291.314 154.882 291.314ZM164.214 300.412V310H160.358V293.636H164.044V296.417H164.235C164.612 295.501 165.212 294.773 166.036 294.233C166.867 293.693 167.893 293.423 169.115 293.423C170.244 293.423 171.228 293.665 172.066 294.148C172.911 294.631 173.564 295.33 174.026 296.246C174.495 297.163 174.725 298.274 174.718 299.581V310H170.862V300.178C170.862 299.084 170.578 298.228 170.009 297.61C169.448 296.992 168.671 296.683 167.676 296.683C167.002 296.683 166.402 296.832 165.876 297.131C165.358 297.422 164.949 297.844 164.651 298.398C164.36 298.952 164.214 299.624 164.214 300.412ZM182.94 310.33C181.903 310.33 180.969 310.146 180.138 309.776C179.314 309.4 178.66 308.846 178.178 308.114C177.702 307.383 177.464 306.481 177.464 305.408C177.464 304.485 177.634 303.722 177.975 303.118C178.316 302.514 178.781 302.031 179.371 301.669C179.96 301.307 180.624 301.033 181.363 300.849C182.109 300.657 182.879 300.518 183.675 300.433C184.633 300.334 185.411 300.245 186.008 300.167C186.604 300.082 187.038 299.954 187.307 299.783C187.584 299.606 187.723 299.332 187.723 298.963V298.899C187.723 298.097 187.485 297.475 187.009 297.035C186.533 296.594 185.848 296.374 184.953 296.374C184.008 296.374 183.259 296.58 182.705 296.992C182.158 297.404 181.789 297.891 181.597 298.452L177.996 297.94C178.28 296.946 178.749 296.115 179.403 295.447C180.056 294.773 180.855 294.268 181.8 293.935C182.744 293.594 183.788 293.423 184.932 293.423C185.72 293.423 186.505 293.516 187.286 293.7C188.067 293.885 188.781 294.19 189.428 294.616C190.074 295.036 190.592 295.607 190.983 296.332C191.381 297.056 191.579 297.962 191.579 299.048V310H187.872V307.752H187.744C187.51 308.207 187.18 308.633 186.753 309.031C186.334 309.421 185.805 309.737 185.166 309.979C184.534 310.213 183.792 310.33 182.94 310.33ZM183.941 307.496C184.715 307.496 185.386 307.344 185.954 307.038C186.523 306.726 186.959 306.314 187.265 305.803C187.577 305.291 187.734 304.734 187.734 304.13V302.202C187.613 302.301 187.407 302.393 187.116 302.479C186.832 302.564 186.512 302.638 186.157 302.702C185.802 302.766 185.45 302.823 185.102 302.873C184.754 302.923 184.452 302.965 184.197 303.001C183.621 303.079 183.106 303.207 182.652 303.384C182.197 303.562 181.839 303.81 181.576 304.13C181.313 304.442 181.182 304.847 181.182 305.344C181.182 306.055 181.441 306.591 181.959 306.953C182.478 307.315 183.138 307.496 183.941 307.496ZM203.22 293.636V296.619H193.814V293.636H203.22ZM196.136 289.716H199.992V305.078C199.992 305.597 200.071 305.994 200.227 306.271C200.39 306.541 200.603 306.726 200.866 306.825C201.129 306.925 201.42 306.974 201.74 306.974C201.981 306.974 202.201 306.957 202.4 306.921C202.606 306.886 202.762 306.854 202.869 306.825L203.519 309.84C203.313 309.911 203.018 309.989 202.635 310.075C202.258 310.16 201.796 310.21 201.25 310.224C200.284 310.252 199.414 310.107 198.64 309.787C197.865 309.46 197.251 308.956 196.796 308.274C196.349 307.592 196.129 306.74 196.136 305.717V289.716ZM206.038 310V293.636H209.894V310H206.038ZM207.977 291.314C207.366 291.314 206.84 291.112 206.4 290.707C205.96 290.295 205.74 289.801 205.74 289.226C205.74 288.643 205.96 288.15 206.4 287.745C206.84 287.333 207.366 287.127 207.977 287.127C208.595 287.127 209.12 287.333 209.553 287.745C209.994 288.15 210.214 288.643 210.214 289.226C210.214 289.801 209.994 290.295 209.553 290.707C209.12 291.112 208.595 291.314 207.977 291.314ZM220.59 310.32C218.992 310.32 217.607 309.968 216.435 309.265C215.263 308.562 214.354 307.578 213.708 306.314C213.069 305.05 212.749 303.572 212.749 301.882C212.749 300.192 213.069 298.711 213.708 297.44C214.354 296.168 215.263 295.181 216.435 294.478C217.607 293.775 218.992 293.423 220.59 293.423C222.188 293.423 223.573 293.775 224.745 294.478C225.917 295.181 226.822 296.168 227.461 297.44C228.108 298.711 228.431 300.192 228.431 301.882C228.431 303.572 228.108 305.05 227.461 306.314C226.822 307.578 225.917 308.562 224.745 309.265C223.573 309.968 222.188 310.32 220.59 310.32ZM220.611 307.23C221.478 307.23 222.202 306.992 222.784 306.516C223.367 306.033 223.8 305.387 224.084 304.577C224.375 303.768 224.521 302.866 224.521 301.871C224.521 300.87 224.375 299.964 224.084 299.155C223.8 298.338 223.367 297.688 222.784 297.205C222.202 296.722 221.478 296.481 220.611 296.481C219.723 296.481 218.985 296.722 218.395 297.205C217.813 297.688 217.376 298.338 217.085 299.155C216.801 299.964 216.659 300.87 216.659 301.871C216.659 302.866 216.801 303.768 217.085 304.577C217.376 305.387 217.813 306.033 218.395 306.516C218.985 306.992 219.723 307.23 220.611 307.23ZM235.153 300.412V310H231.296V293.636H234.982V296.417H235.174C235.55 295.501 236.15 294.773 236.974 294.233C237.805 293.693 238.832 293.423 240.053 293.423C241.182 293.423 242.166 293.665 243.004 294.148C243.849 294.631 244.503 295.33 244.964 296.246C245.433 297.163 245.664 298.274 245.657 299.581V310H241.8V300.178C241.8 299.084 241.516 298.228 240.948 297.61C240.387 296.992 239.609 296.683 238.615 296.683C237.94 296.683 237.34 296.832 236.814 297.131C236.296 297.422 235.888 297.844 235.589 298.398C235.298 298.952 235.153 299.624 235.153 300.412Z" fill="white"/>
<path d="M237.712 112.198L159.652 76.1209C159.303 75.9597 158.9 75.9597 158.551 76.1209L80.492 112.198C80.032 112.411 79.738 112.869 79.738 113.372C79.738 113.876 80.033 114.334 80.492 114.546L111.412 128.823V171.564C111.412 172.041 111.676 172.479 112.1 172.705C128.65 181.527 145.073 186 160.911 186C160.914 186 160.918 186 160.921 186C160.924 186 160.928 186 160.93 186C161.264 186 161.599 185.998 161.932 185.994C162.018 185.993 162.103 185.99 162.189 185.988C162.396 185.985 162.602 185.981 162.808 185.976C163.101 185.969 163.393 185.962 163.685 185.952C163.869 185.946 164.053 185.939 164.238 185.932C164.551 185.919 164.864 185.906 165.177 185.89C165.345 185.882 165.513 185.872 165.681 185.862C166.009 185.844 166.337 185.824 166.665 185.802C166.821 185.791 166.976 185.779 167.132 185.768C167.472 185.743 167.81 185.716 168.149 185.687C168.296 185.674 168.443 185.661 168.59 185.647C168.937 185.615 169.284 185.582 169.63 185.546C169.771 185.531 169.911 185.516 170.052 185.5C170.404 185.462 170.756 185.422 171.107 185.379C171.245 185.363 171.382 185.345 171.519 185.328C171.873 185.283 172.227 185.237 172.581 185.187C172.716 185.168 172.852 185.149 172.987 185.129C173.342 185.078 173.696 185.025 174.051 184.969C174.187 184.948 174.322 184.927 174.458 184.905C174.811 184.848 175.163 184.788 175.516 184.727C175.654 184.702 175.792 184.678 175.93 184.653C176.28 184.591 176.629 184.525 176.978 184.458C177.119 184.431 177.26 184.404 177.401 184.376C177.747 184.308 178.092 184.237 178.438 184.165C178.582 184.135 178.727 184.104 178.872 184.073C179.213 184 179.554 183.924 179.895 183.847C180.043 183.813 180.192 183.779 180.34 183.745C180.677 183.667 181.013 183.586 181.35 183.503C181.502 183.466 181.655 183.429 181.808 183.39C182.138 183.307 182.469 183.221 182.799 183.135C182.957 183.093 183.116 183.052 183.274 183.009C183.598 182.922 183.923 182.832 184.247 182.741C184.41 182.695 184.573 182.65 184.736 182.603C185.056 182.512 185.374 182.418 185.693 182.323C185.861 182.273 186.029 182.223 186.197 182.172C186.511 182.076 186.825 181.978 187.138 181.879C187.31 181.825 187.483 181.77 187.655 181.715C187.962 181.616 188.27 181.514 188.577 181.411C188.755 181.352 188.934 181.293 189.112 181.232C189.413 181.13 189.713 181.024 190.014 180.919C190.197 180.854 190.381 180.791 190.565 180.724C190.86 180.619 191.155 180.51 191.45 180.4C191.638 180.331 191.826 180.262 192.014 180.191C192.305 180.082 192.595 179.969 192.886 179.857C193.077 179.783 193.269 179.71 193.46 179.634C193.747 179.521 194.034 179.404 194.32 179.288C194.515 179.209 194.709 179.131 194.904 179.051C195.187 178.934 195.47 178.814 195.753 178.694C195.95 178.611 196.146 178.528 196.343 178.444C196.624 178.323 196.904 178.198 197.184 178.074C197.383 177.986 197.582 177.9 197.78 177.811C198.058 177.686 198.336 177.557 198.613 177.429C198.814 177.337 199.014 177.246 199.215 177.152C199.492 177.023 199.768 176.89 200.045 176.757C200.245 176.661 200.445 176.567 200.645 176.469C200.923 176.334 201.2 176.196 201.478 176.058C201.676 175.959 201.875 175.862 202.073 175.762C202.357 175.619 202.64 175.471 202.923 175.325C203.114 175.226 203.305 175.129 203.496 175.029C203.791 174.875 204.085 174.716 204.38 174.559C204.559 174.463 204.739 174.369 204.918 174.272C205.236 174.099 205.554 173.922 205.872 173.745C206.027 173.659 206.181 173.576 206.336 173.489C206.808 173.224 207.279 172.955 207.75 172.682C208.15 172.45 208.396 172.024 208.396 171.564V128.076L222.007 121.8V155.72C219.27 156.368 217.227 158.81 217.227 161.722C217.227 165.128 220.019 167.9 223.45 167.9C226.88 167.9 229.67 165.128 229.67 161.722C229.67 158.712 227.489 156.202 224.616 155.658V120.597L237.711 114.546C238.171 114.334 238.465 113.876 238.465 113.372C238.466 112.869 238.172 112.411 237.712 112.198ZM160.912 183.411C145.726 183.411 129.955 179.164 114.021 170.787V162.924C123.258 167.828 132.535 171.402 141.6 173.544C141.702 173.568 141.803 173.579 141.903 173.579C142.493 173.579 143.028 173.179 143.171 172.584C143.338 171.888 142.905 171.19 142.204 171.025C133.249 168.909 124.069 165.356 114.921 160.467C114.634 160.313 114.316 160.283 114.021 160.348V130.029L158.551 150.606C158.725 150.686 158.913 150.727 159.101 150.727C159.289 150.727 159.477 150.686 159.651 150.605L205.788 129.281V170.818C191.164 179.174 176.07 183.411 160.912 183.411ZM227.062 161.722C227.062 163.701 225.441 165.31 223.45 165.31C221.457 165.31 219.836 163.701 219.836 161.722C219.836 159.745 221.457 158.136 223.45 158.136C225.441 158.136 227.062 159.745 227.062 161.722ZM223.094 118.444L167.057 112.205C166.487 108.353 163.137 105.386 159.101 105.386C154.667 105.386 151.06 108.969 151.06 113.373C151.06 117.775 154.667 121.357 159.101 121.357C163.043 121.357 166.329 118.527 167.012 114.806L218.541 120.543L206.523 126.085L159.101 148.004L113.267 126.824C113.267 126.824 113.267 126.824 113.267 126.823L84.135 113.372L159.102 78.723L234.071 113.372L223.094 118.444ZM164.536 113.372C164.536 116.347 162.098 118.767 159.102 118.767C156.106 118.767 153.669 116.347 153.669 113.372C153.669 110.397 156.106 107.976 159.102 107.976C162.098 107.976 164.536 110.397 164.536 113.372Z" fill="#1AB26B" stroke="#F7F7F7" stroke-width="0.746618"/>
<path d="M223.43 168.828C223.425 168.828 223.421 168.828 223.417 168.828C222.697 168.835 222.119 169.42 222.125 170.135L222.184 176.36C222.191 177.071 222.774 177.643 223.488 177.643C223.492 177.643 223.496 177.643 223.5 177.643C224.221 177.636 224.799 177.051 224.792 176.336L224.733 170.111C224.727 169.4 224.144 168.828 223.43 168.828Z" fill="#1AB26B" stroke="#F7F7F7" stroke-width="0.746618"/>
<path d="M230.297 166.673C229.784 166.172 228.958 166.178 228.453 166.689C227.949 167.199 227.956 168.019 228.47 168.52L232.937 172.877C233.19 173.125 233.521 173.248 233.851 173.248C234.188 173.248 234.526 173.119 234.781 172.861C235.286 172.351 235.278 171.531 234.764 171.03L230.297 166.673Z" fill="#1AB26B" stroke="#F7F7F7" stroke-width="0.746618"/>
<path d="M216.485 166.846L212.116 171.281C211.612 171.792 211.621 172.612 212.136 173.112C212.39 173.359 212.719 173.482 213.048 173.482C213.386 173.482 213.725 173.352 213.98 173.092L218.349 168.657C218.853 168.146 218.844 167.326 218.329 166.826C217.814 166.326 216.988 166.335 216.485 166.846Z" fill="#1AB26B" stroke="#F7F7F7" stroke-width="0.746618"/>
<path d="M158.715 173.382C155.922 173.289 153.01 173.007 150.061 172.542C149.35 172.43 148.682 172.912 148.569 173.618C148.456 174.325 148.941 174.988 149.652 175.1C152.708 175.581 155.727 175.874 158.627 175.97C158.642 175.97 158.657 175.971 158.672 175.971C159.372 175.971 159.951 175.419 159.974 174.719C159.999 174.004 159.434 173.406 158.715 173.382Z" fill="#1AB26B" stroke="#F7F7F7" stroke-width="0.746618"/>
<defs>
<filter id="filter0_i_2_57" x="0" y="0" width="320" height="340" filterUnits="userSpaceOnUse" color-interpolation-filters="sRGB">
<feFlood flood-opacity="0" result="BackgroundImageFix"/>
<feBlend mode="normal" in="SourceGraphic" in2="BackgroundImageFix" result="shape"/>
<feColorMatrix in="SourceAlpha" type="matrix" values="0 0 0 0 0 0 0 0 0 0 0 0 0 0 0 0 0 0 127 0" result="hardAlpha"/>
<feOffset/>
<feGaussianBlur stdDeviation="10"/>
<feComposite in2="hardAlpha" operator="arithmetic" k2="-1" k3="1"/>
<feColorMatrix type="matrix" values="0 0 0 0 0 0 0 0 0 0 0 0 0 0 0 0 0 0 0.25 0"/>
<feBlend mode="normal" in2="shape" result="effect1_innerShadow_2_57"/>
</filter>
</defs>
</svg>
