<svg width="320" height="341" viewBox="0 0 320 341" fill="none" xmlns="http://www.w3.org/2000/svg">
<g filter="url(#filter0_i_2_55)">
<path d="M311 0H9C4.02944 0 0 4.02944 0 9V331C0 335.971 4.02944 340 9 340H311C315.971 340 320 335.971 320 331V9C320 4.02944 315.971 0 311 0Z" fill="white"/>
<path d="M311 0.5H9C4.30558 0.5 0.5 4.30558 0.5 9V331C0.5 335.694 4.30558 339.5 9 339.5H311C315.694 339.5 319.5 335.694 319.5 331V9C319.5 4.30558 315.694 0.5 311 0.5Z" stroke="#E4E4E4"/>
</g>
<path d="M0 282C0 265.431 13.4315 252 30 252H290C306.569 252 320 265.431 320 282V341H0V282Z" fill="#FF5F26"/>
<path d="M107.827 292.543H103.843C103.729 291.89 103.52 291.311 103.214 290.807C102.909 290.295 102.529 289.862 102.075 289.507C101.62 289.152 101.102 288.886 100.519 288.708C99.944 288.523 99.322 288.431 98.655 288.431C97.469 288.431 96.418 288.729 95.501 289.326C94.585 289.915 93.868 290.782 93.349 291.925C92.831 293.062 92.572 294.45 92.572 296.091C92.572 297.76 92.831 299.166 93.349 300.31C93.875 301.446 94.592 302.305 95.501 302.888C96.418 303.463 97.465 303.751 98.644 303.751C99.298 303.751 99.908 303.665 100.477 303.495C101.052 303.317 101.567 303.058 102.021 302.717C102.483 302.376 102.87 301.957 103.183 301.46C103.502 300.963 103.722 300.395 103.843 299.756L107.827 299.777C107.678 300.814 107.355 301.787 106.858 302.696C106.368 303.605 105.725 304.408 104.93 305.104C104.134 305.793 103.204 306.332 102.138 306.723C101.073 307.107 99.891 307.298 98.591 307.298C96.673 307.298 94.962 306.854 93.456 305.967C91.95 305.079 90.764 303.797 89.898 302.121C89.031 300.445 88.598 298.435 88.598 296.091C88.598 293.74 89.035 291.73 89.908 290.061C90.782 288.385 91.972 287.103 93.477 286.215C94.983 285.327 96.688 284.884 98.591 284.884C99.805 284.884 100.935 285.054 101.979 285.395C103.023 285.736 103.953 286.237 104.77 286.897C105.587 287.55 106.258 288.353 106.783 289.305C107.316 290.249 107.664 291.329 107.827 292.543ZM114.725 285.182V307H110.868V285.182H114.725ZM122.992 307.33C121.955 307.33 121.021 307.146 120.19 306.776C119.366 306.4 118.712 305.846 118.229 305.114C117.754 304.383 117.516 303.481 117.516 302.408C117.516 301.485 117.686 300.722 118.027 300.118C118.368 299.514 118.833 299.031 119.423 298.669C120.012 298.307 120.676 298.033 121.415 297.849C122.161 297.657 122.931 297.518 123.727 297.433C124.685 297.334 125.463 297.245 126.06 297.167C126.656 297.082 127.09 296.954 127.359 296.783C127.636 296.606 127.775 296.332 127.775 295.963V295.899C127.775 295.097 127.537 294.475 127.061 294.035C126.585 293.594 125.9 293.374 125.005 293.374C124.06 293.374 123.311 293.58 122.757 293.992C122.21 294.404 121.841 294.891 121.649 295.452L118.048 294.94C118.332 293.946 118.801 293.115 119.455 292.447C120.108 291.773 120.907 291.268 121.852 290.935C122.796 290.594 123.84 290.423 124.984 290.423C125.772 290.423 126.557 290.516 127.338 290.7C128.119 290.885 128.833 291.19 129.479 291.616C130.126 292.036 130.644 292.607 131.035 293.332C131.433 294.056 131.631 294.962 131.631 296.048V307H127.924V304.752H127.796C127.562 305.207 127.232 305.633 126.805 306.031C126.386 306.421 125.857 306.737 125.218 306.979C124.586 307.213 123.844 307.33 122.992 307.33ZM123.993 304.496C124.767 304.496 125.438 304.344 126.006 304.038C126.575 303.726 127.011 303.314 127.317 302.803C127.629 302.291 127.786 301.734 127.786 301.13V299.202C127.665 299.301 127.459 299.393 127.168 299.479C126.884 299.564 126.564 299.638 126.209 299.702C125.854 299.766 125.502 299.823 125.154 299.873C124.806 299.923 124.504 299.965 124.249 300.001C123.673 300.079 123.158 300.207 122.704 300.384C122.249 300.562 121.891 300.81 121.628 301.13C121.365 301.442 121.234 301.847 121.234 302.344C121.234 303.055 121.493 303.591 122.011 303.953C122.53 304.315 123.19 304.496 123.993 304.496ZM148.035 294.962L144.519 295.345C144.419 294.99 144.245 294.656 143.997 294.344C143.755 294.031 143.429 293.779 143.017 293.587C142.605 293.396 142.101 293.3 141.504 293.3C140.701 293.3 140.027 293.474 139.48 293.822C138.94 294.17 138.674 294.621 138.681 295.175C138.674 295.651 138.848 296.038 139.203 296.336C139.565 296.634 140.162 296.879 140.993 297.071L143.784 297.668C145.332 298.001 146.483 298.531 147.236 299.255C147.995 299.979 148.379 300.928 148.386 302.099C148.379 303.129 148.077 304.038 147.481 304.827C146.891 305.608 146.071 306.219 145.02 306.659C143.968 307.099 142.761 307.32 141.397 307.32C139.395 307.32 137.782 306.901 136.561 306.062C135.339 305.217 134.611 304.042 134.377 302.536L138.138 302.174C138.308 302.913 138.67 303.47 139.224 303.847C139.778 304.223 140.499 304.411 141.387 304.411C142.303 304.411 143.038 304.223 143.592 303.847C144.153 303.47 144.434 303.005 144.434 302.451C144.434 301.982 144.253 301.595 143.89 301.29C143.535 300.984 142.981 300.75 142.228 300.587L139.437 300.001C137.868 299.674 136.706 299.124 135.954 298.349C135.201 297.568 134.828 296.581 134.835 295.388C134.828 294.379 135.101 293.506 135.655 292.767C136.216 292.021 136.994 291.446 137.988 291.041C138.99 290.629 140.144 290.423 141.451 290.423C143.368 290.423 144.878 290.832 145.978 291.648C147.086 292.465 147.772 293.57 148.035 294.962ZM164.091 294.962L160.576 295.345C160.476 294.99 160.302 294.656 160.054 294.344C159.812 294.031 159.486 293.779 159.074 293.587C158.662 293.396 158.157 293.3 157.561 293.3C156.758 293.3 156.084 293.474 155.537 293.822C154.997 294.17 154.731 294.621 154.738 295.175C154.731 295.651 154.905 296.038 155.26 296.336C155.622 296.634 156.218 296.879 157.049 297.071L159.841 297.668C161.389 298.001 162.54 298.531 163.292 299.255C164.052 299.979 164.436 300.928 164.443 302.099C164.436 303.129 164.134 304.038 163.537 304.827C162.948 305.608 162.128 306.219 161.076 306.659C160.025 307.099 158.818 307.32 157.454 307.32C155.451 307.32 153.839 306.901 152.618 306.062C151.396 305.217 150.668 304.042 150.434 302.536L154.194 302.174C154.365 302.913 154.727 303.47 155.281 303.847C155.835 304.223 156.556 304.411 157.444 304.411C158.36 304.411 159.095 304.223 159.649 303.847C160.21 303.47 160.491 303.005 160.491 302.451C160.491 301.982 160.309 301.595 159.947 301.29C159.592 300.984 159.038 300.75 158.285 300.587L155.494 300.001C153.924 299.674 152.763 299.124 152.01 298.349C151.258 297.568 150.885 296.581 150.892 295.388C150.885 294.379 151.158 293.506 151.712 292.767C152.273 292.021 153.051 291.446 154.045 291.041C155.047 290.629 156.201 290.423 157.508 290.423C159.425 290.423 160.934 290.832 162.035 291.648C163.143 292.465 163.829 293.57 164.091 294.962ZM167.215 307V290.636H170.954V293.364H171.125C171.423 292.419 171.934 291.691 172.659 291.18C173.39 290.661 174.225 290.402 175.162 290.402C175.375 290.402 175.613 290.413 175.876 290.434C176.146 290.448 176.37 290.473 176.547 290.509V294.056C176.384 293.999 176.125 293.95 175.77 293.907C175.422 293.857 175.084 293.832 174.758 293.832C174.054 293.832 173.422 293.985 172.861 294.29C172.307 294.589 171.871 295.004 171.551 295.537C171.231 296.07 171.072 296.684 171.072 297.38V307H167.215ZM185.165 307.32C183.567 307.32 182.183 306.968 181.011 306.265C179.839 305.562 178.93 304.578 178.283 303.314C177.644 302.05 177.325 300.572 177.325 298.882C177.325 297.192 177.644 295.711 178.283 294.44C178.93 293.168 179.839 292.181 181.011 291.478C182.183 290.775 183.567 290.423 185.165 290.423C186.763 290.423 188.148 290.775 189.32 291.478C190.492 292.181 191.398 293.168 192.037 294.44C192.683 295.711 193.006 297.192 193.006 298.882C193.006 300.572 192.683 302.05 192.037 303.314C191.398 304.578 190.492 305.562 189.32 306.265C188.148 306.968 186.763 307.32 185.165 307.32ZM185.187 304.23C186.053 304.23 186.778 303.992 187.36 303.516C187.942 303.033 188.376 302.387 188.66 301.577C188.951 300.768 189.097 299.866 189.097 298.871C189.097 297.87 188.951 296.964 188.66 296.155C188.376 295.338 187.942 294.688 187.36 294.205C186.778 293.722 186.053 293.481 185.187 293.481C184.299 293.481 183.56 293.722 182.971 294.205C182.388 294.688 181.952 295.338 181.66 296.155C181.376 296.964 181.234 297.87 181.234 298.871C181.234 299.866 181.376 300.768 181.66 301.577C181.952 302.387 182.388 303.033 182.971 303.516C183.56 303.992 184.299 304.23 185.187 304.23ZM203.009 307.32C201.411 307.32 200.026 306.968 198.855 306.265C197.683 305.562 196.774 304.578 196.127 303.314C195.488 302.05 195.169 300.572 195.169 298.882C195.169 297.192 195.488 295.711 196.127 294.44C196.774 293.168 197.683 292.181 198.855 291.478C200.026 290.775 201.411 290.423 203.009 290.423C204.607 290.423 205.992 290.775 207.164 291.478C208.336 292.181 209.242 293.168 209.881 294.44C210.527 295.711 210.85 297.192 210.85 298.882C210.85 300.572 210.527 302.05 209.881 303.314C209.242 304.578 208.336 305.562 207.164 306.265C205.992 306.968 204.607 307.32 203.009 307.32ZM203.031 304.23C203.897 304.23 204.622 303.992 205.204 303.516C205.786 303.033 206.22 302.387 206.504 301.577C206.795 300.768 206.941 299.866 206.941 298.871C206.941 297.87 206.795 296.964 206.504 296.155C206.22 295.338 205.786 294.688 205.204 294.205C204.622 293.722 203.897 293.481 203.031 293.481C202.143 293.481 201.404 293.722 200.815 294.205C200.232 294.688 199.796 295.338 199.504 296.155C199.22 296.964 199.078 297.87 199.078 298.871C199.078 299.866 199.22 300.768 199.504 301.577C199.796 302.387 200.232 303.033 200.815 303.516C201.404 303.992 202.143 304.23 203.031 304.23ZM213.716 307V290.636H217.402V293.417H217.593C217.934 292.479 218.499 291.748 219.287 291.222C220.076 290.69 221.017 290.423 222.11 290.423C223.218 290.423 224.152 290.693 224.912 291.233C225.679 291.766 226.219 292.494 226.532 293.417H226.702C227.064 292.508 227.675 291.783 228.534 291.244C229.401 290.697 230.427 290.423 231.613 290.423C233.119 290.423 234.348 290.899 235.299 291.851C236.251 292.803 236.727 294.191 236.727 296.016V307H232.86V296.613C232.86 295.597 232.59 294.855 232.05 294.386C231.51 293.911 230.85 293.673 230.069 293.673C229.138 293.673 228.41 293.964 227.885 294.546C227.366 295.121 227.107 295.871 227.107 296.794V307H223.325V296.453C223.325 295.608 223.069 294.933 222.558 294.429C222.054 293.925 221.393 293.673 220.576 293.673C220.022 293.673 219.518 293.815 219.064 294.099C218.609 294.376 218.247 294.77 217.977 295.281C217.707 295.786 217.572 296.375 217.572 297.05V307H213.716Z" fill="white"/>
<path d="M217.686 204.1H214.589V132.987C214.589 132.187 213.948 131.537 213.157 131.537H193.814V113.474C193.814 112.996 193.581 112.548 193.19 112.278L162.838 91.253C162.355 90.916 161.717 90.916 161.227 91.248L130.494 112.274C130.101 112.543 129.864 112.994 129.864 113.476V131.539H110.524C109.734 131.539 109.092 132.188 109.092 132.989V204.1H105.995C105.205 204.1 104.563 204.75 104.563 205.55C104.563 206.35 105.205 207 105.995 207H217.688C218.478 207 219.12 206.35 219.12 205.55C219.12 204.75 218.478 204.1 217.686 204.1ZM163.395 179.933H171.486V204.1H163.395V179.933ZM160.531 204.1H152.194V179.933H160.531V204.1ZM172.918 177.033H150.762C149.972 177.033 149.33 177.682 149.33 178.483V204.1H141.43V170.992H182.241V204.1H174.35V178.483C174.35 177.682 173.71 177.033 172.918 177.033ZM111.956 145.617H124.009V168.092H111.956V145.617ZM126.872 145.617H138.566V168.092H126.872V145.617ZM141.43 145.617H153.125V168.092H141.43V145.617ZM211.725 168.092H199.664V145.617H211.725V168.092ZM196.8 168.092H185.105V145.617H196.8V168.092ZM182.241 168.092H170.546V145.617H182.241V168.092ZM167.682 168.092H155.988V145.617H167.682V168.092ZM185.105 170.992H211.725V204.1H185.105V170.992ZM131.298 134.437C132.088 134.437 132.73 133.787 132.73 132.987V114.244L162.025 94.202L190.949 114.238V132.986C190.949 133.786 191.59 134.436 192.381 134.436H211.725V142.715H111.956V134.436H131.298V134.437ZM111.956 170.992H138.566V204.1H111.956V170.992Z" fill="#F15922"/>
<defs>
<filter id="filter0_i_2_55" x="0" y="0" width="320" height="340" filterUnits="userSpaceOnUse" color-interpolation-filters="sRGB">
<feFlood flood-opacity="0" result="BackgroundImageFix"/>
<feBlend mode="normal" in="SourceGraphic" in2="BackgroundImageFix" result="shape"/>
<feColorMatrix in="SourceAlpha" type="matrix" values="0 0 0 0 0 0 0 0 0 0 0 0 0 0 0 0 0 0 127 0" result="hardAlpha"/>
<feOffset/>
<feGaussianBlur stdDeviation="10"/>
<feComposite in2="hardAlpha" operator="arithmetic" k2="-1" k3="1"/>
<feColorMatrix type="matrix" values="0 0 0 0 0 0 0 0 0 0 0 0 0 0 0 0 0 0 0.25 0"/>
<feBlend mode="normal" in2="shape" result="effect1_innerShadow_2_55"/>
</filter>
</defs>
</svg>
