<svg width="320" height="341" viewBox="0 0 320 341" fill="none" xmlns="http://www.w3.org/2000/svg">
<g filter="url(#filter0_i_2_56)">
<path d="M311 0H9C4.02944 0 0 4.02944 0 9V331C0 335.971 4.02944 340 9 340H311C315.971 340 320 335.971 320 331V9C320 4.02944 315.971 0 311 0Z" fill="white"/>
<path d="M311 0.5H9C4.30558 0.5 0.5 4.30558 0.5 9V331C0.5 335.694 4.30558 339.5 9 339.5H311C315.694 339.5 319.5 335.694 319.5 331V9C319.5 4.30558 315.694 0.5 311 0.5Z" stroke="#E4E4E4"/>
</g>
<path d="M0 282C0 265.431 13.431 252 30 252H290C306.569 252 320 265.431 320 282V341H0V282Z" fill="#FAA61A"/>
<path d="M110.512 312V290.182H124.489V293.495H114.464V299.418H123.53V302.732H114.464V312H110.512ZM132.074 312.33C131.037 312.33 130.103 312.146 129.272 311.776C128.448 311.4 127.795 310.846 127.312 310.114C126.836 309.383 126.598 308.481 126.598 307.408C126.598 306.485 126.768 305.722 127.109 305.118C127.45 304.514 127.915 304.031 128.505 303.669C129.094 303.307 129.758 303.033 130.497 302.849C131.243 302.657 132.013 302.518 132.809 302.433C133.768 302.334 134.545 302.245 135.142 302.167C135.738 302.082 136.172 301.954 136.442 301.783C136.719 301.606 136.857 301.332 136.857 300.963V300.899C136.857 300.097 136.619 299.475 136.143 299.035C135.667 298.594 134.982 298.374 134.087 298.374C133.143 298.374 132.393 298.58 131.839 298.992C131.292 299.404 130.923 299.891 130.731 300.452L127.131 299.94C127.415 298.946 127.883 298.115 128.537 297.447C129.19 296.773 129.989 296.268 130.934 295.935C131.878 295.594 132.922 295.423 134.066 295.423C134.854 295.423 135.639 295.516 136.42 295.7C137.202 295.885 137.915 296.19 138.562 296.616C139.208 297.036 139.726 297.607 140.117 298.332C140.515 299.056 140.714 299.962 140.714 301.048V312H137.006V309.752H136.878C136.644 310.207 136.314 310.633 135.888 311.031C135.469 311.421 134.939 311.737 134.3 311.979C133.668 312.213 132.926 312.33 132.074 312.33ZM133.075 309.496C133.849 309.496 134.52 309.344 135.089 309.038C135.657 308.726 136.094 308.314 136.399 307.803C136.712 307.291 136.868 306.734 136.868 306.13V304.202C136.747 304.301 136.541 304.393 136.25 304.479C135.966 304.564 135.646 304.638 135.291 304.702C134.936 304.766 134.584 304.823 134.236 304.873C133.888 304.923 133.587 304.965 133.331 305.001C132.756 305.079 132.241 305.207 131.786 305.384C131.332 305.562 130.973 305.81 130.71 306.13C130.447 306.442 130.316 306.847 130.316 307.344C130.316 308.055 130.575 308.591 131.094 308.953C131.612 309.315 132.273 309.496 133.075 309.496ZM151.321 312.32C149.688 312.32 148.285 311.961 147.113 311.244C145.948 310.526 145.05 309.536 144.418 308.271C143.793 307 143.48 305.537 143.48 303.882C143.48 302.22 143.8 300.754 144.439 299.482C145.078 298.204 145.98 297.21 147.145 296.499C148.317 295.782 149.702 295.423 151.3 295.423C152.628 295.423 153.804 295.668 154.826 296.158C155.856 296.641 156.676 297.327 157.287 298.214C157.898 299.095 158.246 300.125 158.331 301.304H154.645C154.496 300.516 154.141 299.859 153.58 299.333C153.026 298.8 152.284 298.534 151.353 298.534C150.565 298.534 149.872 298.747 149.276 299.173C148.679 299.592 148.214 300.196 147.88 300.984C147.554 301.773 147.39 302.717 147.39 303.818C147.39 304.933 147.554 305.892 147.88 306.695C148.207 307.49 148.665 308.104 149.254 308.538C149.851 308.964 150.551 309.177 151.353 309.177C151.921 309.177 152.429 309.07 152.877 308.857C153.331 308.637 153.711 308.321 154.017 307.909C154.322 307.497 154.531 306.996 154.645 306.407H158.331C158.239 307.565 157.898 308.591 157.308 309.486C156.719 310.374 155.916 311.07 154.901 311.574C153.885 312.071 152.692 312.32 151.321 312.32ZM171.52 305.118V295.636H175.376V312H171.637V309.092H171.466C171.097 310.008 170.49 310.757 169.645 311.339C168.807 311.922 167.773 312.213 166.544 312.213C165.472 312.213 164.524 311.975 163.7 311.499C162.883 311.016 162.244 310.317 161.782 309.401C161.321 308.477 161.09 307.362 161.09 306.055V295.636H164.946V305.459C164.946 306.496 165.231 307.32 165.799 307.93C166.367 308.541 167.113 308.847 168.036 308.847C168.604 308.847 169.155 308.708 169.687 308.431C170.22 308.154 170.657 307.742 170.998 307.195C171.346 306.641 171.52 305.949 171.52 305.118ZM182.79 290.182V312H178.934V290.182H182.79ZM194.519 295.636V298.619H185.112V295.636H194.519ZM187.435 291.716H191.291V307.078C191.291 307.597 191.369 307.994 191.526 308.271C191.689 308.541 191.902 308.726 192.165 308.825C192.428 308.925 192.719 308.974 193.038 308.974C193.28 308.974 193.5 308.957 193.699 308.921C193.905 308.886 194.061 308.854 194.168 308.825L194.818 311.84C194.612 311.911 194.317 311.989 193.933 312.075C193.557 312.16 193.095 312.21 192.548 312.224C191.583 312.252 190.712 312.107 189.938 311.787C189.164 311.46 188.55 310.956 188.095 310.274C187.648 309.592 187.428 308.74 187.435 307.717V291.716ZM199.734 318.136C199.208 318.136 198.722 318.094 198.274 318.009C197.834 317.93 197.482 317.838 197.219 317.732L198.114 314.727C198.675 314.891 199.176 314.969 199.616 314.962C200.057 314.955 200.444 314.816 200.778 314.546C201.119 314.283 201.406 313.843 201.641 313.225L201.971 312.341L196.037 295.636H200.128L203.899 307.994H204.07L207.852 295.636H211.953L205.401 313.982C205.096 314.848 204.691 315.59 204.187 316.208C203.683 316.833 203.065 317.309 202.333 317.636C201.609 317.969 200.742 318.136 199.734 318.136Z" fill="white"/>
<path d="M193.109 98.175H130.839C130.398 98.175 129.99 97.946 129.761 97.571C129.533 97.196 129.519 96.73 129.722 96.341L130.404 95.038C133.797 88.588 135.59 81.332 135.59 74.0517C135.59 73.3592 136.153 72.7978 136.849 72.7978H150.448C150.319 72.0999 150.254 71.386 150.254 70.6624C150.254 64.2315 155.512 59 161.974 59C168.436 59 173.693 64.2315 173.693 70.6624C173.693 71.386 173.627 72.0999 173.498 72.7978H187.097C187.793 72.7978 188.357 73.3592 188.357 74.0517C188.357 81.33 190.15 88.587 193.542 95.036L194.226 96.341C194.429 96.73 194.414 97.196 194.187 97.571C193.958 97.946 193.549 98.175 193.109 98.175ZM132.913 95.667H191.034C187.823 89.368 186.043 82.366 185.854 75.3055H171.865C171.458 75.3055 171.075 75.109 170.838 74.7784C170.602 74.4478 170.541 74.0235 170.676 73.6402C171.005 72.695 171.173 71.6934 171.173 70.6624C171.173 65.6145 167.046 61.5077 161.974 61.5077C156.901 61.5077 152.774 65.6145 152.774 70.6624C152.774 71.6934 152.941 72.695 153.271 73.6402C153.405 74.0235 153.345 74.4478 153.109 74.7784C152.871 75.109 152.488 75.3055 152.081 75.3055H138.092C137.904 82.367 136.125 89.368 132.913 95.667Z" fill="#FAA61A" stroke="#F7F7F7" stroke-width="0.45"/>
<path d="M161.975 75.9508C159.044 75.9508 156.661 73.5784 156.661 70.6623C156.661 67.7469 159.044 65.3745 161.975 65.3745C164.906 65.3745 167.289 67.7469 167.289 70.6623C167.289 73.5784 164.906 75.9508 161.975 75.9508ZM161.975 67.8822C160.434 67.8822 159.181 69.1293 159.181 70.6623C159.181 72.1954 160.434 73.4431 161.975 73.4431C163.515 73.4431 164.769 72.1954 164.769 70.6623C164.769 69.1293 163.515 67.8822 161.975 67.8822Z" fill="#FAA61A" stroke="#F7F7F7" stroke-width="0.45"/>
<path d="M214.313 221.999H109.634C105.534 221.999 102.2 218.681 102.2 214.602V87.9C102.2 83.821 105.534 80.502 109.634 80.502H136.194C136.891 80.502 137.454 81.064 137.454 81.756C137.454 82.449 136.891 83.01 136.194 83.01H109.634C106.925 83.01 104.72 85.204 104.72 87.9V214.602C104.72 217.298 106.925 219.491 109.634 219.491H214.313C217.022 219.491 219.226 217.298 219.226 214.602V203.718C219.226 203.026 219.789 202.464 220.486 202.464C221.182 202.464 221.746 203.026 221.746 203.718V214.602C221.746 218.681 218.411 221.999 214.313 221.999Z" fill="#FAA61A" stroke="#F7F7F7" stroke-width="0.45"/>
<path d="M220.486 156.26C219.79 156.26 219.226 155.698 219.226 155.006V87.9C219.226 85.204 217.022 83.01 214.313 83.01H187.753C187.056 83.01 186.493 82.449 186.493 81.756C186.493 81.064 187.056 80.502 187.753 80.502H214.313C218.412 80.502 221.746 83.821 221.746 87.9V155.006C221.746 155.698 221.182 156.26 220.486 156.26Z" fill="#FAA61A" stroke="#F7F7F7" stroke-width="0.45"/>
<path d="M142.216 126.025H121.821C121.124 126.025 120.561 125.464 120.561 124.771V104.475C120.561 103.782 121.124 103.221 121.821 103.221H142.216C142.913 103.221 143.476 103.782 143.476 104.475V124.771C143.476 125.464 142.913 126.025 142.216 126.025ZM123.08 123.517H140.956V105.729H123.08V123.517Z" fill="#FAA61A" stroke="#F7F7F7" stroke-width="0.45"/>
<path d="M142.216 163.761H121.821C121.124 163.761 120.561 163.2 120.561 162.507V142.211C120.561 141.518 121.124 140.957 121.821 140.957H142.216C142.913 140.957 143.476 141.518 143.476 142.211V162.507C143.476 163.2 142.913 163.761 142.216 163.761ZM123.08 161.253H140.956V143.464H123.08V161.253Z" fill="#FAA61A" stroke="#F7F7F7" stroke-width="0.45"/>
<path d="M142.216 201.495H121.821C121.124 201.495 120.561 200.934 120.561 200.241V179.945C120.561 179.252 121.124 178.691 121.821 178.691H142.216C142.913 178.691 143.476 179.252 143.476 179.945V200.241C143.476 200.934 142.913 201.495 142.216 201.495ZM123.08 198.988H140.956V181.199H123.08V198.988Z" fill="#FAA61A" stroke="#F7F7F7" stroke-width="0.45"/>
<path d="M129.439 119.666C129.116 119.666 128.794 119.544 128.548 119.299L126.087 116.851C125.595 116.362 125.595 115.568 126.087 115.078C126.579 114.588 127.376 114.588 127.869 115.078L129.439 116.64L136.167 109.944C136.659 109.454 137.456 109.454 137.948 109.944C138.441 110.433 138.441 111.227 137.948 111.717L130.329 119.299C130.083 119.544 129.761 119.666 129.439 119.666Z" fill="#FAA61A" stroke="#F7F7F7" stroke-width="0.45"/>
<path d="M129.439 157.404C129.116 157.404 128.794 157.281 128.548 157.036L126.087 154.588C125.595 154.099 125.595 153.305 126.087 152.815C126.579 152.325 127.376 152.325 127.869 152.815L129.439 154.377L136.167 147.681C136.659 147.191 137.456 147.191 137.948 147.681C138.441 148.171 138.441 148.964 137.948 149.454L130.329 157.036C130.083 157.281 129.761 157.404 129.439 157.404Z" fill="#FAA61A" stroke="#F7F7F7" stroke-width="0.45"/>
<path d="M129.439 195.139C129.116 195.139 128.794 195.016 128.548 194.772L126.087 192.323C125.595 191.834 125.595 191.04 126.087 190.55C126.579 190.06 127.376 190.06 127.869 190.55L129.439 192.112L136.167 185.417C136.659 184.927 137.456 184.927 137.948 185.417C138.441 185.906 138.441 186.7 137.948 187.19L130.329 194.772C130.083 195.016 129.761 195.139 129.439 195.139Z" fill="#FAA61A" stroke="#F7F7F7" stroke-width="0.45"/>
<path d="M205.425 110.855H150.616C149.919 110.855 149.356 110.293 149.356 109.601C149.356 108.908 149.919 108.347 150.616 108.347H205.425C206.121 108.347 206.685 108.908 206.685 109.601C206.685 110.293 206.121 110.855 205.425 110.855Z" fill="#FAA61A" stroke="#F7F7F7" stroke-width="0.45"/>
<path d="M205.425 120.896H150.616C149.919 120.896 149.356 120.335 149.356 119.642C149.356 118.95 149.919 118.388 150.616 118.388H205.425C206.121 118.388 206.685 118.95 206.685 119.642C206.685 120.335 206.121 120.896 205.425 120.896Z" fill="#FAA61A" stroke="#F7F7F7" stroke-width="0.45"/>
<path d="M205.425 148.592H150.616C149.919 148.592 149.356 148.031 149.356 147.338C149.356 146.646 149.919 146.084 150.616 146.084H205.425C206.121 146.084 206.685 146.646 206.685 147.338C206.685 148.031 206.121 148.592 205.425 148.592Z" fill="#FAA61A" stroke="#F7F7F7" stroke-width="0.45"/>
<path d="M196.605 158.632H150.616C149.919 158.632 149.356 158.07 149.356 157.378C149.356 156.686 149.919 156.124 150.616 156.124H196.605C197.301 156.124 197.865 156.686 197.865 157.378C197.865 158.07 197.301 158.632 196.605 158.632Z" fill="#FAA61A" stroke="#F7F7F7" stroke-width="0.45"/>
<path d="M190.41 186.326H150.616C149.919 186.326 149.356 185.765 149.356 185.072C149.356 184.38 149.919 183.819 150.616 183.819H190.41C191.106 183.819 191.67 184.38 191.67 185.072C191.67 185.765 191.106 186.326 190.41 186.326Z" fill="#FAA61A" stroke="#F7F7F7" stroke-width="0.45"/>
<path d="M181.485 196.366H150.616C149.919 196.366 149.356 195.805 149.356 195.112C149.356 194.42 149.919 193.858 150.616 193.858H181.485C182.182 193.858 182.745 194.42 182.745 195.112C182.745 195.805 182.182 196.366 181.485 196.366Z" fill="#FAA61A" stroke="#F7F7F7" stroke-width="0.45"/>
<path d="M234.842 214.517H226.498C225.855 214.517 225.315 214.034 225.246 213.396L224.48 206.301C221.418 205.609 218.539 204.425 215.899 202.772L210.324 207.246C209.822 207.647 209.097 207.61 208.642 207.156L202.741 201.285C202.286 200.832 202.246 200.11 202.651 199.611L207.147 194.063C205.486 191.437 204.297 188.572 203.602 185.523L196.471 184.762C195.831 184.694 195.345 184.156 195.345 183.515V175.212C195.345 174.571 195.83 174.033 196.471 173.965L203.602 173.203C204.297 170.155 205.486 167.29 207.147 164.664L202.651 159.115C202.246 158.616 202.286 157.895 202.741 157.442L208.642 151.57C209.097 151.116 209.822 151.079 210.324 151.481L215.898 155.954C218.539 154.301 221.418 153.117 224.48 152.426L225.246 145.33C225.315 144.693 225.855 144.209 226.498 144.209H234.842C235.485 144.209 236.026 144.693 236.094 145.33L236.86 152.426C239.922 153.117 242.802 154.301 245.442 155.954L251.016 151.481C251.518 151.079 252.242 151.117 252.698 151.57L258.599 157.442C259.054 157.895 259.094 158.616 258.689 159.115L254.193 164.664C255.854 167.29 257.043 170.155 257.738 173.203L264.87 173.965C265.511 174.033 265.995 174.571 265.995 175.212V183.515C265.995 184.156 265.509 184.694 264.87 184.762L257.738 185.523C257.043 188.572 255.854 191.437 254.193 194.063L258.689 199.611C259.094 200.11 259.054 200.832 258.599 201.285L252.698 207.156C252.242 207.61 251.517 207.647 251.016 207.246L245.441 202.772C242.802 204.425 239.922 205.609 236.86 206.301L236.094 213.396C236.026 214.034 235.485 214.517 234.842 214.517ZM227.63 212.009H233.71L234.452 205.127C234.511 204.579 234.922 204.133 235.466 204.029C238.844 203.382 241.989 202.089 244.813 200.186C245.272 199.879 245.879 199.902 246.311 200.249L251.717 204.587L256.016 200.308L251.657 194.928C251.309 194.499 251.284 193.894 251.594 193.437C253.506 190.629 254.805 187.5 255.455 184.137C255.561 183.595 256.008 183.186 256.559 183.127L263.475 182.389V176.338L256.559 175.599C256.008 175.54 255.561 175.131 255.455 174.59C254.806 171.227 253.506 168.097 251.594 165.29C251.284 164.833 251.309 164.228 251.657 163.8L256.016 158.418L251.717 154.14L246.311 158.477C245.878 158.824 245.271 158.848 244.813 158.54C241.989 156.637 238.844 155.344 235.467 154.698C234.923 154.593 234.511 154.148 234.452 153.6L233.71 146.717H227.63L226.888 153.6C226.829 154.148 226.417 154.593 225.873 154.698C222.494 155.344 219.351 156.637 216.527 158.541C216.07 158.849 215.461 158.826 215.029 158.478L209.623 154.14L205.324 158.418L209.683 163.8C210.031 164.228 210.056 164.833 209.746 165.29C207.834 168.097 206.534 171.227 205.885 174.59C205.779 175.131 205.332 175.54 204.781 175.599L197.865 176.338V182.389L204.781 183.127C205.332 183.186 205.779 183.595 205.885 184.137C206.534 187.5 207.834 190.629 209.746 193.437C210.056 193.894 210.031 194.499 209.683 194.928L205.324 200.308L209.623 204.587L215.029 200.249C215.46 199.902 216.069 199.878 216.527 200.186C219.351 202.089 222.496 203.382 225.874 204.029C226.418 204.133 226.829 204.579 226.888 205.127L227.63 212.009ZM264.735 183.515H264.748H264.735Z" fill="#FAA61A" stroke="#F7F7F7" stroke-width="0.45"/>
<path d="M230.67 197.218C220.777 197.218 212.729 189.209 212.729 179.364C212.729 169.519 220.777 161.51 230.67 161.51C240.564 161.51 248.612 169.519 248.612 179.364C248.612 189.209 240.564 197.218 230.67 197.218ZM230.67 164.018C222.166 164.018 215.248 170.902 215.248 179.364C215.248 187.826 222.166 194.71 230.67 194.71C239.173 194.71 246.092 187.826 246.092 179.364C246.092 170.902 239.173 164.018 230.67 164.018Z" fill="#FAA61A" stroke="#F7F7F7" stroke-width="0.45"/>
<defs>
<filter id="filter0_i_2_56" x="0" y="0" width="320" height="340" filterUnits="userSpaceOnUse" color-interpolation-filters="sRGB">
<feFlood flood-opacity="0" result="BackgroundImageFix"/>
<feBlend mode="normal" in="SourceGraphic" in2="BackgroundImageFix" result="shape"/>
<feColorMatrix in="SourceAlpha" type="matrix" values="0 0 0 0 0 0 0 0 0 0 0 0 0 0 0 0 0 0 127 0" result="hardAlpha"/>
<feOffset/>
<feGaussianBlur stdDeviation="10"/>
<feComposite in2="hardAlpha" operator="arithmetic" k2="-1" k3="1"/>
<feColorMatrix type="matrix" values="0 0 0 0 0 0 0 0 0 0 0 0 0 0 0 0 0 0 0.25 0"/>
<feBlend mode="normal" in2="shape" result="effect1_innerShadow_2_56"/>
</filter>
</defs>
</svg>
