<svg width="320" height="342" viewBox="0 0 320 342" fill="none" xmlns="http://www.w3.org/2000/svg">
<g filter="url(#filter0_i_2_58)">
<path d="M311 0H9C4.02944 0 0 4.02944 0 9V331C0 335.971 4.02944 340 9 340H311C315.971 340 320 335.971 320 331V9C320 4.02944 315.971 0 311 0Z" fill="white"/>
<path d="M311 0.5H9C4.30558 0.5 0.5 4.30558 0.5 9V331C0.5 335.694 4.30558 339.5 9 339.5H311C315.694 339.5 319.5 335.694 319.5 331V9C319.5 4.30558 315.694 0.5 311 0.5Z" stroke="#E4E4E4"/>
</g>
<path d="M223.16 168.265H155.27V161.988H220.21V67.8313H119.85V92.94H113.94V64.6928C113.94 62.9603 115.26 61.5542 116.89 61.5542H223.16C224.78 61.5542 226.11 62.9603 226.11 64.6928V165.127C226.11 166.859 224.78 168.265 223.16 168.265Z" fill="#00AEEF"/>
<path d="M122.8 143.157C108.15 143.157 96.23 130.477 96.23 114.91C96.23 99.343 108.15 86.663 122.8 86.663C137.45 86.663 149.36 99.343 149.36 114.91C149.36 130.477 137.45 143.157 122.8 143.157ZM122.8 92.94C111.4 92.94 102.14 102.795 102.14 114.91C102.14 127.025 111.4 136.88 122.8 136.88C134.19 136.88 143.46 127.025 143.46 114.91C143.46 102.795 134.19 92.94 122.8 92.94Z" fill="#00AEEF"/>
<path d="M158.22 187.097H87.38C85.75 187.097 84.42 185.691 84.42 183.958V172.446C84.42 155.19 94.82 139.685 110.3 133.867C111.6 133.383 113.04 133.923 113.77 135.141L122.8 150.256L131.94 135.059C132.67 133.848 134.09 133.32 135.37 133.779C150.81 139.328 161.18 154.443 161.18 171.397V183.952C161.17 185.691 159.84 187.097 158.22 187.097ZM90.33 180.819H155.27V171.404C155.27 157.939 147.46 145.843 135.62 140.589L125.28 157.795C124.74 158.699 123.8 159.232 122.8 159.232C121.79 159.232 120.85 158.68 120.31 157.795L110.1 140.696C98.19 146.201 90.33 158.655 90.33 172.452V180.819Z" fill="#00AEEF"/>
<path d="M196.59 86.663H161.17C159.55 86.663 158.22 85.257 158.22 83.524C158.22 81.792 159.55 80.385 161.17 80.385H196.59C198.22 80.385 199.55 81.792 199.55 83.524C199.55 85.257 198.22 86.663 196.59 86.663Z" fill="#00AEEF"/>
<path d="M208.4 105.494H161.17C159.55 105.494 158.22 104.088 158.22 102.356C158.22 100.623 159.55 99.217 161.17 99.217H208.4C210.03 99.217 211.35 100.623 211.35 102.356C211.35 104.088 210.03 105.494 208.4 105.494Z" fill="#00AEEF"/>
<path d="M208.4 124.325H161.17C159.55 124.325 158.22 122.919 158.22 121.187C158.22 119.454 159.55 118.048 161.17 118.048H208.4C210.03 118.048 211.35 119.454 211.35 121.187C211.35 122.919 210.03 124.325 208.4 124.325Z" fill="#00AEEF"/>
<path d="M152.82 152.033C152.07 152.033 151.31 151.725 150.73 151.116C149.58 149.905 149.58 147.902 150.73 146.678L167.44 128.927C168.58 127.715 170.46 127.715 171.61 128.927C172.75 130.151 172.75 132.153 171.61 133.364L154.91 151.116C154.34 151.725 153.58 152.033 152.82 152.033Z" fill="#00AEEF"/>
<path d="M0 284C0 267.431 13.43 254 30 254H289C305.57 254 319 267.431 319 284V341.873H0V284Z" fill="#00AEEF"/>
<path d="M91.61 312V290.182H95.5601V299.418H105.67V290.182H109.64V312H105.67V302.732H95.5601V312H91.61ZM120.6 312.32C118.96 312.32 117.54 311.979 116.35 311.297C115.16 310.608 114.25 309.635 113.61 308.378C112.97 307.114 112.65 305.626 112.65 303.914C112.65 302.231 112.97 300.754 113.61 299.482C114.26 298.204 115.16 297.21 116.32 296.499C117.48 295.782 118.84 295.423 120.4 295.423C121.41 295.423 122.36 295.587 123.25 295.913C124.16 296.233 124.95 296.73 125.64 297.405C126.34 298.08 126.88 298.939 127.28 299.983C127.68 301.02 127.88 302.256 127.88 303.69V304.873H114.46V302.273H124.18C124.17 301.535 124.01 300.878 123.7 300.303C123.39 299.72 122.95 299.262 122.39 298.928C121.84 298.594 121.19 298.428 120.45 298.428C119.66 298.428 118.97 298.619 118.37 299.003C117.78 299.379 117.31 299.876 116.98 300.494C116.65 301.105 116.49 301.776 116.48 302.508V304.777C116.48 305.729 116.65 306.545 117 307.227C117.35 307.902 117.83 308.42 118.46 308.783C119.08 309.138 119.82 309.315 120.65 309.315C121.22 309.315 121.72 309.237 122.18 309.081C122.63 308.918 123.03 308.68 123.36 308.367C123.69 308.055 123.95 307.668 124.12 307.206L127.72 307.611C127.49 308.562 127.06 309.393 126.42 310.104C125.79 310.807 124.98 311.354 123.99 311.744C123 312.128 121.87 312.32 120.6 312.32ZM134.59 290.182V312H130.73V290.182H134.59ZM138.15 318.136V295.636H141.94V298.342H142.16C142.36 297.945 142.64 297.522 143 297.075C143.37 296.62 143.86 296.233 144.47 295.913C145.09 295.587 145.88 295.423 146.84 295.423C148.1 295.423 149.24 295.746 150.26 296.393C151.28 297.032 152.09 297.98 152.69 299.237C153.29 300.487 153.59 302.021 153.59 303.839C153.59 305.636 153.3 307.163 152.71 308.42C152.12 309.678 151.32 310.636 150.3 311.297C149.29 311.957 148.14 312.288 146.85 312.288C145.91 312.288 145.14 312.131 144.52 311.819C143.9 311.506 143.4 311.13 143.03 310.69C142.66 310.242 142.37 309.82 142.16 309.422H142V318.136H138.15ZM141.93 303.818C141.93 304.876 142.08 305.803 142.38 306.599C142.68 307.394 143.12 308.016 143.69 308.463C144.26 308.903 144.96 309.124 145.77 309.124C146.63 309.124 147.34 308.896 147.92 308.442C148.49 307.98 148.92 307.352 149.22 306.556C149.51 305.754 149.66 304.841 149.66 303.818C149.66 302.803 149.52 301.901 149.23 301.112C148.93 300.324 148.5 299.706 147.93 299.259C147.35 298.811 146.63 298.587 145.77 298.587C144.95 298.587 144.25 298.804 143.68 299.237C143.1 299.67 142.66 300.278 142.37 301.059C142.07 301.84 141.93 302.76 141.93 303.818ZM169.59 312.288C168.31 312.288 167.16 311.957 166.14 311.297C165.13 310.636 164.32 309.678 163.73 308.42C163.15 307.163 162.85 305.636 162.85 303.839C162.85 302.021 163.15 300.487 163.75 299.237C164.35 297.98 165.16 297.032 166.19 296.393C167.21 295.746 168.35 295.423 169.6 295.423C170.56 295.423 171.35 295.587 171.97 295.913C172.59 296.233 173.08 296.62 173.44 297.075C173.8 297.522 174.08 297.945 174.28 298.342H174.44V290.182H178.31V312H174.52V309.422H174.28C174.08 309.82 173.8 310.242 173.42 310.69C173.04 311.13 172.55 311.506 171.93 311.819C171.31 312.131 170.53 312.288 169.59 312.288ZM170.67 309.124C171.49 309.124 172.18 308.903 172.76 308.463C173.33 308.016 173.77 307.394 174.07 306.599C174.37 305.803 174.52 304.876 174.52 303.818C174.52 302.76 174.37 301.84 174.07 301.059C173.78 300.278 173.34 299.67 172.77 299.237C172.2 298.804 171.5 298.587 170.67 298.587C169.81 298.587 169.09 298.811 168.52 299.259C167.94 299.706 167.51 300.324 167.22 301.112C166.93 301.901 166.78 302.803 166.78 303.818C166.78 304.841 166.93 305.754 167.22 306.556C167.52 307.352 167.95 307.98 168.53 308.442C169.11 308.896 169.83 309.124 170.67 309.124ZM189.25 312.32C187.61 312.32 186.2 311.979 185 311.297C183.82 310.608 182.91 309.635 182.27 308.378C181.63 307.114 181.31 305.626 181.31 303.914C181.31 302.231 181.63 300.754 182.27 299.482C182.91 298.204 183.81 297.21 184.97 296.499C186.13 295.782 187.49 295.423 189.05 295.423C190.06 295.423 191.01 295.587 191.91 295.913C192.81 296.233 193.6 296.73 194.29 297.405C194.99 298.08 195.54 298.939 195.93 299.983C196.33 301.02 196.53 302.256 196.53 303.69V304.873H183.12V302.273H192.83C192.83 301.535 192.67 300.878 192.35 300.303C192.04 299.72 191.61 299.262 191.04 298.928C190.49 298.594 189.84 298.428 189.11 298.428C188.32 298.428 187.62 298.619 187.03 299.003C186.43 299.379 185.97 299.876 185.63 300.494C185.31 301.105 185.14 301.776 185.13 302.508V304.777C185.13 305.729 185.31 306.545 185.65 307.227C186 307.902 186.49 308.42 187.11 308.783C187.74 309.138 188.47 309.315 189.31 309.315C189.87 309.315 190.38 309.237 190.83 309.081C191.29 308.918 191.68 308.68 192.01 308.367C192.35 308.055 192.6 307.668 192.77 307.206L196.37 307.611C196.14 308.562 195.71 309.393 195.07 310.104C194.44 310.807 193.63 311.354 192.64 311.744C191.66 312.128 190.53 312.32 189.25 312.32ZM212.32 299.962L208.8 300.345C208.7 299.99 208.53 299.656 208.28 299.344C208.04 299.031 207.71 298.779 207.3 298.587C206.89 298.396 206.38 298.3 205.79 298.3C204.99 298.3 204.31 298.474 203.76 298.822C203.22 299.17 202.96 299.621 202.97 300.175C202.96 300.651 203.13 301.038 203.49 301.336C203.85 301.634 204.45 301.879 205.28 302.071L208.07 302.668C209.62 303.001 210.77 303.531 211.52 304.255C212.28 304.979 212.66 305.928 212.67 307.099C212.66 308.129 212.36 309.038 211.76 309.827C211.18 310.608 210.35 311.219 209.3 311.659C208.25 312.099 207.05 312.32 205.68 312.32C203.68 312.32 202.07 311.901 200.84 311.062C199.62 310.217 198.9 309.042 198.66 307.536L202.42 307.174C202.59 307.913 202.95 308.47 203.51 308.847C204.06 309.223 204.78 309.411 205.67 309.411C206.59 309.411 207.32 309.223 207.88 308.847C208.44 308.47 208.72 308.005 208.72 307.451C208.72 306.982 208.54 306.595 208.17 306.29C207.82 305.984 207.27 305.75 206.51 305.587L203.72 305.001C202.15 304.674 200.99 304.124 200.24 303.349C199.48 302.568 199.11 301.581 199.12 300.388C199.11 299.379 199.39 298.506 199.94 297.767C200.5 297.021 201.28 296.446 202.27 296.041C203.27 295.629 204.43 295.423 205.73 295.423C207.65 295.423 209.16 295.832 210.26 296.648C211.37 297.465 212.06 298.57 212.32 299.962ZM218.96 306.865L218.95 302.21H219.57L225.45 295.636H229.95L222.72 303.69H221.92L218.96 306.865ZM215.44 312V290.182H219.3V312H215.44ZM225.71 312L220.39 304.553L222.98 301.837L230.33 312H225.71Z" fill="white"/>
<defs>
<filter id="filter0_i_2_58" x="0" y="0" width="320" height="340" filterUnits="userSpaceOnUse" color-interpolation-filters="sRGB">
<feFlood flood-opacity="0" result="BackgroundImageFix"/>
<feBlend mode="normal" in="SourceGraphic" in2="BackgroundImageFix" result="shape"/>
<feColorMatrix in="SourceAlpha" type="matrix" values="0 0 0 0 0 0 0 0 0 0 0 0 0 0 0 0 0 0 127 0" result="hardAlpha"/>
<feOffset/>
<feGaussianBlur stdDeviation="10"/>
<feComposite in2="hardAlpha" operator="arithmetic" k2="-1" k3="1"/>
<feColorMatrix type="matrix" values="0 0 0 0 0 0 0 0 0 0 0 0 0 0 0 0 0 0 0.25 0"/>
<feBlend mode="normal" in2="shape" result="effect1_innerShadow_2_58"/>
</filter>
</defs>
</svg>
